0
SECTION
2
HEADER
9
$INSUNITS
70
4
9
$ACADVER
1
AC1014
9
$HANDSEED
5
FFFF
0
ENDSEC
0
SECTION
2
TABLES
0
TABLE
2
VPORT
5
8
100
AcDbSymbolTable
0
ENDTAB
0
TABLE
2
LTYPE
5
5
100
AcDbSymbolTable
0
LTYPE
5
14
100
AcDbSymbolTableRecord
100
AcDbLinetypeTableRecord
2
BYBLOCK
70
0
0
LTYPE
5
15
100
AcDbSymbolTableRecord
100
AcDbLinetypeTableRecord
2
BYLAYER
70
0
0
LTYPE
5
16
100
AcDbSymbolTableRecord
100
AcDbLinetypeTableRecord
2
DASHED
70
0
3
Dashed __ __ __ __ __ __ __ __ __ __ __ __ __ _
72
65
73
2
40
0.75
49
0.5
74
0
49
-0.25
74
0
0
ENDTAB
0
TABLE
2
LAYER
5
2
100
AcDbSymbolTable
70
3
0
LAYER
5
50
100
AcDbSymbolTableRecord
100
AcDbLayerTableRecord
2
1
70
0
62
7
6
DASHED
0
LAYER
5
51
100
AcDbSymbolTableRecord
100
AcDbLayerTableRecord
2
0
70
0
62
7
6
CONTINUOUS
0
ENDTAB
0
TABLE
2
STYLE
5
3
100
AcDbSymbolTable
70
1
0
STYLE
5
11
100
AcDbSymbolTableRecord
100
AcDbTextStyleTableRecord
2
STANDARD
70
0
0
ENDTAB
0
TABLE
2
VIEW
5
6
100
AcDbSymbolTable
70
0
0
ENDTAB
0
TABLE
2
UCS
5
7
100
AcDbSymbolTable
70
0
0
ENDTAB
0
TABLE
2
APPID
5
9
100
AcDbSymbolTable
70
2
0
APPID
5
12
100
AcDbSymbolTableRecord
100
AcDbRegAppTableRecord
2
ACAD
70
0
0
ENDTAB
0
TABLE
2
DIMSTYLE
5
A
100
AcDbSymbolTable
70
1
0
ENDTAB
0
TABLE
2
BLOCK_RECORD
5
1
100
AcDbSymbolTable
70
1
0
BLOCK_RECORD
5
1F
100
AcDbSymbolTableRecord
100
AcDbBlockTableRecord
2
*MODEL_SPACE
0
BLOCK_RECORD
5
1B
100
AcDbSymbolTableRecord
100
AcDbBlockTableRecord
2
*PAPER_SPACE
0
ENDTAB
0
ENDSEC
0
SECTION
2
BLOCKS
0
BLOCK
5
20
100
AcDbEntity
100
AcDbBlockBegin
2
*MODEL_SPACE
0
ENDBLK
5
21
100
AcDbEntity
100
AcDbBlockEnd
0
BLOCK
5
1C
100
AcDbEntity
100
AcDbBlockBegin
2
*PAPER_SPACE
0
ENDBLK
5
1D
100
AcDbEntity
100
AcDbBlockEnd
0
ENDSEC
0
SECTION
2
ENTITIES
0
LWPOLYLINE
5
100
100
AcDbEntity
8
0
100
AcDbPolyline
90
24
70
1
43
0.0
10
12.500000268388042
20
16.198090356204208
42
0.41421356238010065
10
12.000000268394402
20
16.698090356202343
10
-11.99999973162404
20
16.698090356186306
42
0.41421356237574197
10
-12.499999731613993
20
16.198090356193781
10
-12.499999731620958
20
15.698090356179005
42
-0.41421356237199203
10
-12.999999731631968
20
15.198090356166112
10
-23.25009547245844
20
15.198090356166105
42
0.41421356237309176
10
-24.250095472449047
20
14.198090356175497
10
-24.250095472449047
20
-14.39999970586741
42
0.41421356237309243
10
-23.25009547244904
20
-15.399999705867417
10
-12.999999731779097
20
-15.399999705867414
42
-0.41421356237309631
10
-12.499999731779097
20
-15.899999705867415
10
-12.499999731779097
20
-16.399999701976778
42
0.41421356237308982
10
-11.999999731779099
20
-16.899999701976778
10
12.000000268220901
20
-16.899999701976775
42
0.4142135623730937
10
12.500000268220898
20
-16.399999701976775
10
12.500000268220901
20
-15.899999705867419
42
-0.41421356237309243
10
13.000000268220905
20
-15.399999705867417
10
23.251121385673041
20
-15.399999705867412
42
0.41421356237310281
10
24.251121385673056
20
-14.399999705867423
10
24.251121385673056
20
14.198090240224953
42
0.41421356237331808
10
23.25112126973114
20
15.198090356179703
10
13.000000268395391
20
15.198090356180611
42
-0.41421356237170326
10
12.500000268396521
20
15.698090356180472
0
CIRCLE
5
101
100
AcDbEntity
8
0
100
AcDbCircle
10
-32.000001192092888
20
37.000000327825546
30
0
40
1.6000000000000014
210
0
220
-0
230
1
0
CIRCLE
5
102
100
AcDbEntity
8
0
100
AcDbCircle
10
-32.000001192092888
20
-16.999999672174457
30
0
40
1.6000000000000014
210
0
220
-0
230
1
0
CIRCLE
5
103
100
AcDbEntity
8
0
100
AcDbCircle
10
31.999998807907115
20
37.000000327825546
30
0
40
1.6000000000000014
210
0
220
-0
230
1
0
CIRCLE
5
104
100
AcDbEntity
8
0
100
AcDbCircle
10
31.999998807907115
20
-16.999999672174457
30
0
40
1.6000000000000014
210
0
220
-0
230
1
0
LWPOLYLINE
5
105
100
AcDbEntity
8
0
100
AcDbPolyline
90
8
70
1
43
0.0
10
37.000000894069672
20
41.000000745058067
42
0.41421356237310025
10
36.000000894069657
20
42.00000074505806
10
-36.000000894069686
20
42.00000074505806
42
0.41421356237309503
10
-37.000000894069686
20
41.000000745058067
10
-37.000000894069686
20
-21.000000298023231
42
0.41421356237309764
10
-36.000000894069679
20
-22.000000298023224
10
36.000000894069679
20
-22.000000298023224
42
0.41421356237309892
10
37.000000894069672
20
-21.00000029802322
0
ENDSEC
0
SECTION
2
OBJECTS
0
DICTIONARY
5
C
100
AcDbDictionary
3
ACAD_GROUP
350
D
3
ACAD_MLINESTYLE
350
17
0
DICTIONARY
5
D
100
AcDbDictionary
0
DICTIONARY
5
1A
330
C
100
AcDbDictionary
0
DICTIONARY
5
17
100
AcDbDictionary
0
ENDSEC
0
EOF
